<?xml version="1.0" encoding="UTF-8" standalone="no"?>
<svg
   xmlns:dc="http://purl.org/dc/elements/1.1/"
   xmlns:cc="http://creativecommons.org/ns#"
   xmlns:rdf="http://www.w3.org/1999/02/22-rdf-syntax-ns#"
   xmlns:svg="http://www.w3.org/2000/svg"
   xmlns="http://www.w3.org/2000/svg"
   xmlns:sodipodi="http://sodipodi.sourceforge.net/DTD/sodipodi-0.dtd"
   xmlns:inkscape="http://www.inkscape.org/namespaces/inkscape"
   version="1.0"
   id="Layer_1"
   x="0px"
   y="0px"
   viewBox="0 0 700 700"
   enable-background="new 0 0 152 48"
   xml:space="preserve"
   sodipodi:docname="latam-logo-2.svg"
   width="700"
   height="700"
   inkscape:version="0.92.4 (5da689c313, 2019-01-14)"><metadata
     id="metadata35"><rdf:RDF><cc:Work
         rdf:about=""><dc:format>image/svg+xml</dc:format><dc:type
           rdf:resource="http://purl.org/dc/dcmitype/StillImage" /><dc:title></dc:title></cc:Work></rdf:RDF></metadata><defs
     id="defs33" /><sodipodi:namedview
     pagecolor="#ffffff"
     bordercolor="#666666"
     borderopacity="1"
     objecttolerance="10"
     gridtolerance="10"
     guidetolerance="10"
     inkscape:pageopacity="0"
     inkscape:pageshadow="2"
     inkscape:window-width="1600"
     inkscape:window-height="837"
     id="namedview31"
     showgrid="false"
     inkscape:zoom="0.54934211"
     inkscape:cx="271.33903"
     inkscape:cy="257.83841"
     inkscape:window-x="-8"
     inkscape:window-y="-8"
     inkscape:window-maximized="1"
     inkscape:current-layer="Layer_1" /><g
     id="g28"
     style="fill:#ff00ff"
     transform="matrix(3.5983086,0,0,3.5983086,79.047362,267.3082)"><path
       d="m 86,24.3 h 4.6 V 11.6 l 8,-0.5 V 7.8 H 78 v 3.3 l 8,0.5 z m -32.9,0 1.9,-3.8 H 43.9 V 7.8 h -4.7 v 16.5 z m 17.6,-6.4 h -6.1 l 3.1,-6.6 z m 41.2,0 h -6.1 l 3.1,-6.6 z m 20.8,2.4 c 0.2,0.6 0.9,1 1.6,1 h 4.7 l 3.5,-9.7 3.3,12.8 h 4.4 L 146.5,9.8 C 146.2,8.3 145.3,7.9 144,7.9 h -4.6 l -3.3,9.7 -2.6,-8.2 c -0.4,-1 -1,-1.5 -2,-1.5 h -5.2 L 122,24.4 h 4.5 l 3.3,-12.8 z m -17.7,4 h 5 L 112.2,8.9 C 111.8,8.1 111.4,7.8 110.4,7.8 H 106 l -8.3,16.5 h 5 l 1.5,-3 h 9.2 z m -41.3,0 h 5 L 70.9,8.9 C 70.5,8.1 70.1,7.8 69.1,7.8 h -4.3 l -8.3,16.5 h 5 l 1.5,-3 h 9.2 z"
       id="path2"
       style="fill:#2c008c;fill-opacity:1"
       inkscape:connector-curvature="0" /><g
       id="g20"
       style="fill:#2c008c;fill-opacity:1"><path
         d="m 44.3,35.4 h -0.8 l -5.1,10.3 -0.1,0.1 h 1.4 L 41.1,43 h 6.2 l 1.4,2.8 v 0 h 1.4 L 45.2,35.9 C 45,35.5 44.7,35.4 44.3,35.4 Z m 2.4,6.4 h -5 l 2.5,-5.1 z"
         id="path4"
         style="fill:#2c008c;fill-opacity:1"
         inkscape:connector-curvature="0" /><rect
         x="57.400002"
         y="35.400002"
         width="1.3"
         height="10.4"
         id="rect6"
         style="fill:#2c008c;fill-opacity:1" /><path
         d="m 76.4,38.7 c 0,-2.1 -1.6,-3.4 -4.1,-3.4 H 67 v 10.4 h 1.3 V 42 c 0.7,0.3 1.9,0.6 3,0.6 0.5,0 1,0 1.5,-0.1 l 2.1,3.3 v 0 h 1.6 l -2.3,-3.7 c 1.4,-0.6 2.2,-1.8 2.2,-3.4 z m -8.1,-2.1 h 3.9 c 2.6,0 2.9,1.5 2.9,2.1 0,1.6 -1.4,2.5 -3.9,2.5 -1,0 -2.1,-0.2 -2.9,-0.6 z"
         id="path8"
         style="fill:#2c008c;fill-opacity:1"
         inkscape:connector-curvature="0" /><polygon
         points="83.8,35.4 83.8,45.8 91.3,45.8 91.3,44.6 85.1,44.6 85.1,35.4 "
         id="polygon10"
         style="fill:#2c008c;fill-opacity:1" /><rect
         x="98.5"
         y="35.400002"
         width="1.3"
         height="10.4"
         id="rect12"
         style="fill:#2c008c;fill-opacity:1" /><path
         d="m 117.3,43.9 -7.7,-8.3 c -0.1,-0.1 -0.2,-0.2 -0.4,-0.2 h -1 v 10.4 h 1.3 v -8.6 l 7.7,8.3 c 0.1,0.2 0.3,0.2 0.5,0.2 h 0.9 V 35.4 h -1.3 z"
         id="path14"
         style="fill:#2c008c;fill-opacity:1"
         inkscape:connector-curvature="0" /><polygon
         points="126.8,35.4 126.8,45.8 134.9,45.8 134.9,44.6 128.1,44.6 128.1,41 134.1,41 134.1,39.8 128.1,39.8 128.1,36.6 134.8,36.6 134.8,35.4 "
         id="polygon16"
         style="fill:#2c008c;fill-opacity:1" /><path
         d="m 146.7,40 -0.8,-0.1 c -1.8,-0.3 -2.5,-0.8 -2.5,-1.7 0,-1 1.2,-1.7 3.1,-1.7 1.7,0 2.8,0.4 3.3,0.6 h 0.1 l 0.4,-1.2 v -0.1 h -0.1 c -0.6,-0.2 -1.9,-0.6 -3.6,-0.6 -2.7,0 -4.5,1.2 -4.5,3 0,1.5 1.1,2.4 3.5,2.8 l 0.8,0.1 c 2,0.4 2.9,0.9 2.9,1.8 0,1.1 -1.1,1.8 -3.1,1.8 -2.1,0 -3.6,-0.6 -4,-0.9 l -0.1,-0.1 -0.4,1.2 v 0 c 0.5,0.3 2.1,1 4.3,1 2.9,0 4.6,-1.2 4.6,-3.1 0,-1.4 -1.2,-2.4 -3.9,-2.8 z"
         id="path18"
         style="fill:#2c008c;fill-opacity:1"
         inkscape:connector-curvature="0" /></g><g
       id="g26"
       style="fill:#2c008c;fill-opacity:1"><path
         d="M 22.4,10.5 9,5.7 C 7.6,5.2 6.8,4.4 6.8,3 V 0.4 c 0,-0.7 0.5,-0.4 1.1,-0.2 4.5,1.6 18.7,6.7 19.9,7.1 0.2,0.1 0.3,0.1 0.4,0.2 0.4,0.3 0,0.8 -1.5,1.3 -0.2,0.2 -1.9,0.8 -4.3,1.7 m 0,8.3 c 2.3,-0.8 4,-1.5 4.3,-1.6 1.7,-0.6 2,-1.2 1.2,-1.5 0,0 0.1,0 0.1,0 -0.1,0 -0.1,-0.1 -0.2,-0.1 -0.2,-0.1 -1.3,-0.5 -2.9,-1.1 -1.8,0.7 -4.4,1.6 -7,2.5 z M 0,17.7 c 0,0.6 0.3,0.7 0.9,0.5 0.3,-0.1 0.8,-0.3 1.4,-0.5 0.2,-0.1 0.3,-0.1 0.5,-0.2 v 0 C 3.8,17.1 5.1,16.7 6.5,16.2 4.2,15.4 2,14.6 0.8,14.1 0.3,14 0,14.1 0,14.7 v 2.4 z m 2.1,-6.3 8.8,3.2 c 2.3,-0.8 4.7,-1.7 7,-2.5 C 11.4,9.7 3.6,6.9 1.1,6 0.5,5.7 0,5.5 0,6.1 v 2.5 c 0,1.5 0.8,2.3 2.1,2.8"
         id="path22"
         style="fill:#ff0e51;fill-opacity:1"
         inkscape:connector-curvature="0" /><path
         d="m 27.7,21.9 -21,7.6 v -5.1 c 0,0 18.9,-6.9 20,-7.2 1.7,-0.6 2,-1.2 1.2,-1.5 0.8,0.3 0.7,0.4 0.7,2.6 0.1,2.4 0.1,3.2 -0.9,3.6 M 11.6,41.1 c 0,-1.1 0.1,-2 -0.8,-1.6 l -4,1.5 v 5 l 3.8,-1.4 c 1,-0.4 1.1,-1.1 1.1,-2.1 v -1.4 z m 6.3,-10.5 c 0,-1.1 0.1,-2 -0.8,-1.6 L 6.7,32.7 v 5 l 10.1,-3.6 c 1,-0.4 1.1,-1.1 1.1,-2.1 z M 28,7.4 c 0.8,0.3 0.5,0.9 -1.2,1.5 -0.9,0.3 -17.8,6.4 -24,8.7 v 0 C 2.6,17.7 2.5,17.7 2.3,17.8 1.7,18 1.2,18.2 0.9,18.3 0.3,18.4 0,18.3 0,17.7 c 0,0.4 0,1.2 0.7,1.4 l 5.5,2 c 0,0 0.4,0.1 0.8,0 0.5,-0.2 20.7,-7.5 20.7,-7.5 1,-0.4 1,-1.2 1,-3.6 0,-2.2 0,-2.3 -0.7,-2.6"
         id="path24"
         style="fill:#2c008c;fill-opacity:1"
         inkscape:connector-curvature="0" /></g></g></svg>